<svg width="68" height="68" viewBox="0 0 68 68" fill="none" xmlns="http://www.w3.org/2000/svg">
<path fill-rule="evenodd" clip-rule="evenodd" d="M34 68C52.7777 68 68 52.7777 68 34C68 15.2223 52.7777 0 34 0C15.2223 0 0 15.2223 0 34C0 52.7777 15.2223 68 34 68ZM45.075 25.969L41.5941 23.5317C41.4717 23.4468 41.3998 23.3075 41.4002 23.1599V20.4538C41.4002 20.2035 41.6033 20 41.854 20H45.3353C45.586 20 45.7895 20.2031 45.7895 20.4538L45.7897 25.597C45.7897 25.7663 45.6948 25.922 45.5454 26.0001C45.48 26.0341 45.4076 26.051 45.3355 26.051C45.2439 26.051 45.1531 26.0233 45.075 25.969ZM49.3109 30.4863L34.5107 20.1259C34.3543 20.0164 34.1461 20.0164 33.9897 20.1259L19.1931 30.4863C19.0945 30.5558 19.0277 30.661 19.0068 30.7794C18.9861 30.8981 19.0132 31.02 19.0822 31.1186L21.0973 33.9964C21.1861 34.123 21.3263 34.1901 21.4701 34.1901C21.5597 34.1901 21.6507 34.164 21.73 34.1081L34.2525 25.3385L46.7745 34.1081C46.9813 34.252 47.2639 34.2019 47.4072 33.9964L49.4227 31.1186C49.4912 31.02 49.5188 30.8977 49.4977 30.7794C49.477 30.6614 49.4097 30.556 49.3109 30.4863ZM45.6332 35.0935L34.5119 27.3057C34.3557 27.1965 34.1473 27.1965 33.9913 27.3057L22.8111 35.135C22.6896 35.2195 22.6174 35.3586 22.6174 35.5072V47.5422C22.6174 47.7924 22.8209 47.9961 23.072 47.9961H30.8513C31.102 47.9961 31.3055 47.7924 31.3055 47.5422V37.0544H37.199V47.5422C37.199 47.7924 37.4021 47.9961 37.6533 47.9961H45.3735C45.6247 47.9961 45.8268 47.7924 45.8268 47.5422V35.4652C45.8266 35.317 45.755 35.1784 45.6332 35.0935Z" fill="#e46e24"/>
</svg>
