<svg width="194" height="194" viewBox="0 0 194 194" fill="none" xmlns="http://www.w3.org/2000/svg">
<g filter="url(#filter0_d_1_1138)">
<circle cx="97.0996" cy="92.9844" r="63" fill="white"/>
<path fill-rule="evenodd" clip-rule="evenodd" d="M96.6 13C140.494 13 176.2 48.7063 176.2 92.6C176.2 136.494 140.494 172.2 96.6 172.2C52.7063 172.2 17 136.494 17 92.6C17 48.7063 52.7063 13 96.6 13ZM109.378 72.3191H89.4371L80.0381 116.73C79.6772 118.488 79.4073 120.122 79.2274 121.631C79.0475 123.139 78.9576 124.524 78.9576 125.791C78.9576 128.718 79.3384 131.217 80.1069 133.293C80.8754 135.37 81.9204 137.08 83.2497 138.429C84.5779 139.779 86.1491 140.776 87.9492 141.405C89.7493 142.028 91.687 142.347 93.7637 142.347C95.5627 142.347 97.3418 142.063 99.0998 141.503C100.859 140.942 102.437 140.069 103.835 138.9C105.226 137.731 106.389 136.249 107.316 134.477C108.237 132.698 108.791 130.566 108.971 128.088C108.472 128.309 107.933 128.51 107.351 128.697C106.762 128.878 105.814 128.968 104.505 128.968C102.574 128.968 101.156 128.593 100.249 127.853C99.3494 127.105 98.8996 125.769 98.8996 123.831C98.8996 123.104 98.9341 122.378 99.0029 121.63C99.0651 120.89 99.2106 120.128 99.4393 119.366L109.378 72.3191ZM103.156 42.8443C101.626 42.8443 100.193 43.1353 98.864 43.7238C97.5359 44.3124 96.3732 45.1153 95.3827 46.1258C94.3932 47.1364 93.6181 48.3057 93.0507 49.6416C92.4898 50.9708 92.2056 52.3967 92.2056 53.9337C92.2056 55.4695 92.4898 56.8954 93.0507 58.2247C93.6181 59.554 94.3932 60.7034 95.3827 61.6717C96.3732 62.6412 97.5359 63.4096 98.864 63.9704C100.193 64.5312 101.626 64.8144 103.156 64.8144C104.685 64.8144 106.119 64.5312 107.447 63.9704C108.776 63.4096 109.954 62.6411 110.964 61.6717C111.975 60.7034 112.778 59.554 113.366 58.2247C113.947 56.8955 114.244 55.4696 114.244 53.9337C114.244 52.3968 113.947 50.9709 113.366 49.6416C112.778 48.3057 111.975 47.1363 110.964 46.1258C109.954 45.1153 108.776 44.3124 107.447 43.7238C106.119 43.1353 104.685 42.8443 103.156 42.8443Z" fill="#F26A13"/>
</g>
<defs>
<filter id="filter0_d_1_1138" x="0" y="0" width="193.199" height="193.2" filterUnits="userSpaceOnUse" color-interpolation-filters="sRGB">
<feFlood flood-opacity="0" result="BackgroundImageFix"/>
<feColorMatrix in="SourceAlpha" type="matrix" values="0 0 0 0 0 0 0 0 0 0 0 0 0 0 0 0 0 0 127 0" result="hardAlpha"/>
<feOffset dy="4"/>
<feGaussianBlur stdDeviation="8.5"/>
<feComposite in2="hardAlpha" operator="out"/>
<feColorMatrix type="matrix" values="0 0 0 0 0 0 0 0 0 0 0 0 0 0 0 0 0 0 0.42 0"/>
<feBlend mode="normal" in2="BackgroundImageFix" result="effect1_dropShadow_1_1138"/>
<feBlend mode="normal" in="SourceGraphic" in2="effect1_dropShadow_1_1138" result="shape"/>
</filter>
</defs>
</svg>
